<svg xmlns="http://www.w3.org/2000/svg" xmlns:xlink="http://www.w3.org/1999/xlink" width="140" height="141" viewBox="0 0 140 141">
  <defs>
    <style>
      .cls-1 {
        fill: #202020;
      }

      .cls-2 {
        fill: #fff;
        stroke: #707070;
      }

      .cls-3 {
        clip-path: url(#clip-path);
      }

      .cls-4 {
        clip-path: url(#clip-path-2);
      }

      .cls-5 {
        fill: url(#linear-gradient);
      }
    </style>
    <clipPath id="clip-path">
      <rect id="Rectangle_1059" data-name="Rectangle 1059" class="cls-1" width="140" height="141" rx="10" transform="translate(359 661.43)"/>
    </clipPath>
    <clipPath id="clip-path-2">
      <circle id="Ellipse_456" data-name="Ellipse 456" class="cls-2" cx="93.5" cy="93.5" r="93.5" transform="translate(0.021 0.236)"/>
    </clipPath>
    <linearGradient id="linear-gradient" x1="0.274" y1="0.747" x2="0.755" y2="0.285" gradientUnits="objectBoundingBox">
      <stop offset="0" stop-color="#313131"/>
      <stop offset="1" stop-color="#202020"/>
    </linearGradient>
  </defs>
  <g id="Mask_Group_7" data-name="Mask Group 7" class="cls-3" transform="translate(-359 -661.43)">
    <g id="Mask_Group_6" data-name="Mask Group 6" class="cls-4" transform="translate(320.979 653.194)">
      <path id="Union_9" data-name="Union 9" class="cls-5" d="M132.917,287.016a5.692,5.692,0,1,1,4.024,1.667A5.69,5.69,0,0,1,132.917,287.016Zm12.341-9.3a5.692,5.692,0,1,1,4.024,1.667A5.692,5.692,0,0,1,145.258,277.717Zm-24.684,0a5.692,5.692,0,1,1,4.025,1.667A5.692,5.692,0,0,1,120.575,277.717Zm37.025-16.1a5.693,5.693,0,1,1,4.025,1.667A5.692,5.692,0,0,1,157.6,261.62Zm-24.683,0a5.692,5.692,0,1,1,4.024,1.667A5.69,5.69,0,0,1,132.917,261.62Zm-24.684,0a5.692,5.692,0,1,1,4.024,1.667A5.69,5.69,0,0,1,108.233,261.62Zm61.709-12.342a5.69,5.69,0,1,1,4.024,1.667A5.69,5.69,0,0,1,169.942,249.277Zm-24.684,0a5.69,5.69,0,1,1,4.024,1.667A5.692,5.692,0,0,1,145.258,249.277Zm-24.684,0a5.69,5.69,0,1,1,4.025,1.667A5.692,5.692,0,0,1,120.575,249.277Zm-24.684,0a5.691,5.691,0,1,1,4.025,1.667A5.692,5.692,0,0,1,95.891,249.277ZM179.2,236.936a5.692,5.692,0,1,1,4.025,1.667A5.692,5.692,0,0,1,179.2,236.936Zm-21.6,0a5.693,5.693,0,1,1,4.025,1.667A5.692,5.692,0,0,1,157.6,236.936Zm-24.683,0a5.692,5.692,0,1,1,4.024,1.667A5.69,5.69,0,0,1,132.917,236.936Zm-24.684,0a5.692,5.692,0,1,1,4.024,1.667A5.69,5.69,0,0,1,108.233,236.936Zm-23.556,0A5.692,5.692,0,1,1,88.7,238.6,5.69,5.69,0,0,1,84.677,236.936Zm103.787-12.341a5.692,5.692,0,1,1,4.024,1.667A5.691,5.691,0,0,1,188.464,224.594Zm-18.521,0a5.692,5.692,0,1,1,4.024,1.667A5.692,5.692,0,0,1,169.942,224.594Zm-24.684,0a5.692,5.692,0,1,1,4.024,1.667A5.693,5.693,0,0,1,145.258,224.594Zm-24.684,0a5.692,5.692,0,1,1,4.025,1.667A5.693,5.693,0,0,1,120.575,224.594Zm-24.684,0a5.693,5.693,0,1,1,4.025,1.667A5.693,5.693,0,0,1,95.891,224.594Zm-22.428,0a5.692,5.692,0,1,1,4.024,1.667A5.693,5.693,0,0,1,73.463,224.594Zm128.085-11.366a5.69,5.69,0,1,1,4.024,1.667A5.692,5.692,0,0,1,201.547,213.229Zm-22.345-.977a5.69,5.69,0,1,1,4.025,1.667A5.692,5.692,0,0,1,179.2,212.252Zm-21.6,0a5.691,5.691,0,1,1,4.025,1.667A5.692,5.692,0,0,1,157.6,212.252Zm-24.683,0a5.69,5.69,0,1,1,4.024,1.667A5.69,5.69,0,0,1,132.917,212.252Zm-24.684,0a5.69,5.69,0,1,1,4.024,1.667A5.69,5.69,0,0,1,108.233,212.252Zm-23.556,0a5.69,5.69,0,1,1,4.024,1.667A5.69,5.69,0,0,1,84.677,212.252Zm-23.556-.977a5.69,5.69,0,1,1,4.024,1.667A5.69,5.69,0,0,1,61.121,211.275Zm154.722-9.3a5.692,5.692,0,1,1,4.024,1.667A5.691,5.691,0,0,1,215.843,201.978Zm-142.38,0a5.692,5.692,0,1,1,4.024,1.667A5.693,5.693,0,0,1,73.463,201.978Zm-24.684,0a5.692,5.692,0,1,1,4.025,1.667A5.693,5.693,0,0,1,48.779,201.978Zm142.38-1.954a5.69,5.69,0,1,1,4.024,1.667A5.69,5.69,0,0,1,191.159,200.024Zm-21.217-.113a5.692,5.692,0,1,1,4.024,1.667A5.69,5.69,0,0,1,169.942,199.91Zm-24.684,0a5.692,5.692,0,1,1,4.024,1.667A5.692,5.692,0,0,1,145.258,199.91Zm-24.684,0a5.692,5.692,0,1,1,4.025,1.667A5.692,5.692,0,0,1,120.575,199.91Zm-24.684,0a5.693,5.693,0,1,1,4.025,1.667A5.692,5.692,0,0,1,95.891,199.91ZM157.6,187.568a5.692,5.692,0,1,1,4.025,1.667A5.692,5.692,0,0,1,157.6,187.568Zm-24.683,0a5.69,5.69,0,1,1,4.024,1.667A5.69,5.69,0,0,1,132.917,187.568Zm-24.684,0a5.69,5.69,0,1,1,4.024,1.667A5.69,5.69,0,0,1,108.233,187.568Zm119.951-1.689a5.69,5.69,0,1,1,4.024,1.667A5.692,5.692,0,0,1,228.184,185.879Zm-24.684,0a5.69,5.69,0,1,1,4.025,1.667A5.692,5.692,0,0,1,203.5,185.879Zm-24.684,0a5.691,5.691,0,1,1,4.025,1.667A5.692,5.692,0,0,1,178.817,185.879Zm-93.013,0a5.691,5.691,0,1,1,4.025,1.667A5.692,5.692,0,0,1,85.8,185.879Zm-24.683,0a5.69,5.69,0,1,1,4.024,1.667A5.69,5.69,0,0,1,61.121,185.879Zm-24.684,0a5.69,5.69,0,1,1,4.024,1.667A5.69,5.69,0,0,1,36.437,185.879Zm204.089-12.341a5.692,5.692,0,1,1,4.025,1.667A5.692,5.692,0,0,1,240.526,173.538Zm-24.683,0a5.692,5.692,0,1,1,4.024,1.667A5.69,5.69,0,0,1,215.843,173.538Zm-24.684,0a5.692,5.692,0,1,1,4.024,1.667A5.69,5.69,0,0,1,191.159,173.538Zm-24.684,0A5.692,5.692,0,1,1,170.5,175.2,5.692,5.692,0,0,1,166.475,173.538Zm-21.217,0a5.692,5.692,0,1,1,4.024,1.667A5.692,5.692,0,0,1,145.258,173.538Zm-24.684,0A5.692,5.692,0,1,1,124.6,175.2,5.692,5.692,0,0,1,120.575,173.538Zm-22.428,0a5.692,5.692,0,1,1,4.024,1.667A5.69,5.69,0,0,1,98.146,173.538Zm-24.684,0a5.692,5.692,0,1,1,4.024,1.667A5.692,5.692,0,0,1,73.463,173.538Zm-24.684,0A5.692,5.692,0,1,1,52.8,175.2,5.692,5.692,0,0,1,48.779,173.538Zm-24.684,0A5.693,5.693,0,1,1,28.12,175.2,5.692,5.692,0,0,1,24.095,173.538ZM249.787,161.2a5.69,5.69,0,1,1,4.024,1.667A5.69,5.69,0,0,1,249.787,161.2Zm-21.6,0a5.69,5.69,0,1,1,4.024,1.667A5.692,5.692,0,0,1,228.184,161.2Zm-24.684,0a5.69,5.69,0,1,1,4.025,1.667A5.692,5.692,0,0,1,203.5,161.2Zm-24.684,0a5.692,5.692,0,1,1,4.025,1.667A5.692,5.692,0,0,1,178.817,161.2Zm-23.556,0a5.69,5.69,0,1,1,4.025,1.667A5.692,5.692,0,0,1,155.261,161.2Zm-22.344,0a5.69,5.69,0,1,1,4.024,1.667A5.69,5.69,0,0,1,132.917,161.2Zm-25.51,0a5.69,5.69,0,1,1,4.025,1.667A5.692,5.692,0,0,1,107.407,161.2Zm-21.6,0a5.691,5.691,0,1,1,4.025,1.667A5.692,5.692,0,0,1,85.8,161.2Zm-24.683,0a5.69,5.69,0,1,1,4.024,1.667A5.69,5.69,0,0,1,61.121,161.2Zm-24.684,0a5.69,5.69,0,1,1,4.024,1.667A5.69,5.69,0,0,1,36.437,161.2Zm-23.556,0a5.69,5.69,0,1,1,4.024,1.667A5.69,5.69,0,0,1,12.881,161.2Zm246.166-12.342a5.692,5.692,0,1,1,4.025,1.667A5.692,5.692,0,0,1,259.047,148.854Zm-18.521,0a5.692,5.692,0,1,1,4.025,1.667A5.692,5.692,0,0,1,240.526,148.854Zm-24.683,0a5.692,5.692,0,1,1,4.024,1.667A5.69,5.69,0,0,1,215.843,148.854Zm-24.684,0a5.692,5.692,0,1,1,4.024,1.667A5.69,5.69,0,0,1,191.159,148.854Zm-24.684,0a5.692,5.692,0,1,1,4.024,1.667A5.692,5.692,0,0,1,166.475,148.854Zm-22.428,0a5.692,5.692,0,1,1,4.024,1.667A5.69,5.69,0,0,1,144.047,148.854Zm-27.379,0a5.692,5.692,0,1,1,4.024,1.667A5.69,5.69,0,0,1,116.668,148.854Zm-18.521,0a5.692,5.692,0,1,1,4.024,1.667A5.69,5.69,0,0,1,98.146,148.854Zm-24.684,0a5.692,5.692,0,1,1,4.024,1.667A5.692,5.692,0,0,1,73.463,148.854Zm-24.684,0a5.692,5.692,0,1,1,4.025,1.667A5.692,5.692,0,0,1,48.779,148.854Zm-24.684,0a5.693,5.693,0,1,1,4.025,1.667A5.692,5.692,0,0,1,24.095,148.854Zm-22.428,0a5.692,5.692,0,1,1,4.024,1.667A5.692,5.692,0,0,1,1.667,148.854Zm248.12-12.341a5.692,5.692,0,1,1,4.024,1.667A5.691,5.691,0,0,1,249.787,136.512Zm-21.6,0a5.692,5.692,0,1,1,4.024,1.667A5.693,5.693,0,0,1,228.184,136.512Zm-24.684,0a5.692,5.692,0,1,1,4.025,1.667A5.693,5.693,0,0,1,203.5,136.512Zm-24.684,0a5.693,5.693,0,1,1,4.025,1.667A5.693,5.693,0,0,1,178.817,136.512Zm-23.556,0a5.692,5.692,0,1,1,4.025,1.667A5.693,5.693,0,0,1,155.261,136.512Zm-47.854,0a5.692,5.692,0,1,1,4.025,1.667A5.692,5.692,0,0,1,107.407,136.512Zm-21.6,0a5.693,5.693,0,1,1,4.025,1.667A5.692,5.692,0,0,1,85.8,136.512Zm-24.683,0a5.692,5.692,0,1,1,4.024,1.667A5.69,5.69,0,0,1,61.121,136.512Zm-24.684,0a5.692,5.692,0,1,1,4.024,1.667A5.69,5.69,0,0,1,36.437,136.512Zm-23.556,0a5.692,5.692,0,1,1,4.024,1.667A5.69,5.69,0,0,1,12.881,136.512Zm118.823-.978a5.69,5.69,0,1,1,4.025,1.667A5.692,5.692,0,0,1,131.7,135.535Zm12.342-9.3a5.692,5.692,0,1,1,4.024,1.667A5.69,5.69,0,0,1,144.047,126.238Zm-24.684,0a5.692,5.692,0,1,1,4.024,1.667A5.69,5.69,0,0,1,119.363,126.238Zm121.163-2.068a5.69,5.69,0,1,1,4.025,1.667A5.692,5.692,0,0,1,240.526,124.17Zm-24.683,0a5.69,5.69,0,1,1,4.024,1.667A5.69,5.69,0,0,1,215.843,124.17Zm-24.684,0a5.69,5.69,0,1,1,4.024,1.667A5.69,5.69,0,0,1,191.159,124.17Zm-24.684,0a5.69,5.69,0,1,1,4.024,1.667A5.692,5.692,0,0,1,166.475,124.17Zm-68.329,0a5.69,5.69,0,1,1,4.024,1.667A5.69,5.69,0,0,1,98.146,124.17Zm-24.684,0a5.69,5.69,0,1,1,4.024,1.667A5.692,5.692,0,0,1,73.463,124.17Zm-24.684,0a5.69,5.69,0,1,1,4.025,1.667A5.692,5.692,0,0,1,48.779,124.17Zm-24.684,0a5.691,5.691,0,1,1,4.025,1.667A5.692,5.692,0,0,1,24.095,124.17Zm204.09-12.341a5.692,5.692,0,1,1,4.024,1.667A5.692,5.692,0,0,1,228.184,111.829Zm-24.684,0a5.692,5.692,0,1,1,4.025,1.667A5.692,5.692,0,0,1,203.5,111.829Zm-24.684,0a5.693,5.693,0,1,1,4.025,1.667A5.692,5.692,0,0,1,178.817,111.829Zm-93.013,0a5.693,5.693,0,1,1,4.025,1.667A5.692,5.692,0,0,1,85.8,111.829Zm-24.683,0a5.692,5.692,0,1,1,4.024,1.667A5.69,5.69,0,0,1,61.121,111.829Zm-24.684,0a5.692,5.692,0,1,1,4.024,1.667A5.69,5.69,0,0,1,36.437,111.829Zm119.951-1.689a5.692,5.692,0,1,1,4.024,1.667A5.693,5.693,0,0,1,156.389,110.14Zm-24.684,0a5.692,5.692,0,1,1,4.025,1.667A5.693,5.693,0,0,1,131.7,110.14Zm-24.684,0a5.693,5.693,0,1,1,4.025,1.667A5.693,5.693,0,0,1,107.021,110.14ZM215.843,97.8a5.69,5.69,0,1,1,4.024,1.667A5.69,5.69,0,0,1,215.843,97.8Zm-24.684,0a5.69,5.69,0,1,1,4.024,1.667A5.69,5.69,0,0,1,191.159,97.8Zm-22.429,0a5.691,5.691,0,1,1,4.025,1.667A5.692,5.692,0,0,1,168.73,97.8Zm-24.683,0a5.69,5.69,0,1,1,4.024,1.667A5.69,5.69,0,0,1,144.047,97.8Zm-24.684,0a5.69,5.69,0,1,1,4.024,1.667A5.69,5.69,0,0,1,119.363,97.8Zm-24.684,0A5.69,5.69,0,1,1,98.7,99.465,5.692,5.692,0,0,1,94.679,97.8Zm-21.217,0a5.69,5.69,0,1,1,4.024,1.667A5.692,5.692,0,0,1,73.463,97.8Zm-24.684,0A5.69,5.69,0,1,1,52.8,99.465,5.692,5.692,0,0,1,48.779,97.8ZM203.5,85.456a5.692,5.692,0,1,1,4.025,1.667A5.692,5.692,0,0,1,203.5,85.456Zm-25.509,0a5.692,5.692,0,1,1,4.024,1.667A5.69,5.69,0,0,1,177.991,85.456Zm-21.6,0a5.692,5.692,0,1,1,4.024,1.667A5.692,5.692,0,0,1,156.389,85.456Zm-24.684,0a5.692,5.692,0,1,1,4.025,1.667A5.692,5.692,0,0,1,131.7,85.456Zm-24.684,0a5.693,5.693,0,1,1,4.025,1.667A5.692,5.692,0,0,1,107.021,85.456Zm-23.556,0a5.692,5.692,0,1,1,4.025,1.667A5.692,5.692,0,0,1,83.465,85.456Zm-22.344,0a5.692,5.692,0,1,1,4.024,1.667A5.69,5.69,0,0,1,61.121,85.456Zm126.13-12.342a5.691,5.691,0,1,1,4.025,1.667A5.692,5.692,0,0,1,187.252,73.114Zm-18.521,0a5.691,5.691,0,1,1,4.025,1.667A5.692,5.692,0,0,1,168.73,73.114Zm-24.683,0a5.69,5.69,0,1,1,4.024,1.667A5.69,5.69,0,0,1,144.047,73.114Zm-24.684,0a5.69,5.69,0,1,1,4.024,1.667A5.69,5.69,0,0,1,119.363,73.114Zm-24.684,0A5.69,5.69,0,1,1,98.7,74.781,5.692,5.692,0,0,1,94.679,73.114Zm-22.428,0a5.69,5.69,0,1,1,4.024,1.667A5.69,5.69,0,0,1,72.251,73.114Zm105.74-12.341a5.692,5.692,0,1,1,4.024,1.667A5.69,5.69,0,0,1,177.991,60.772Zm-21.6,0a5.692,5.692,0,1,1,4.024,1.667A5.692,5.692,0,0,1,156.389,60.772Zm-24.684,0a5.692,5.692,0,1,1,4.025,1.667A5.692,5.692,0,0,1,131.7,60.772Zm-24.684,0a5.693,5.693,0,1,1,4.025,1.667A5.692,5.692,0,0,1,107.021,60.772Zm-23.556,0a5.692,5.692,0,1,1,4.025,1.667A5.692,5.692,0,0,1,83.465,60.772ZM168.73,48.431a5.693,5.693,0,1,1,4.025,1.667A5.693,5.693,0,0,1,168.73,48.431Zm-24.683,0a5.692,5.692,0,1,1,4.024,1.667A5.692,5.692,0,0,1,144.047,48.431Zm-24.684,0a5.692,5.692,0,1,1,4.024,1.667A5.691,5.691,0,0,1,119.363,48.431Zm-24.684,0A5.692,5.692,0,1,1,98.7,50.1,5.693,5.693,0,0,1,94.679,48.431Zm61.709-12.342a5.69,5.69,0,1,1,4.024,1.667A5.692,5.692,0,0,1,156.389,36.088Zm-24.684,0a5.69,5.69,0,1,1,4.025,1.667A5.692,5.692,0,0,1,131.7,36.088Zm-24.684,0a5.691,5.691,0,1,1,4.025,1.667A5.692,5.692,0,0,1,107.021,36.088Zm37.026-14.03a5.692,5.692,0,1,1,4.024,1.667A5.692,5.692,0,0,1,144.047,22.058Zm-24.684,0a5.692,5.692,0,1,1,4.024,1.667A5.691,5.691,0,0,1,119.363,22.058ZM131.7,9.716a5.69,5.69,0,1,1,4.025,1.667A5.692,5.692,0,0,1,131.7,9.716Z" transform="translate(-41.245 -53.988)"/>
    </g>
  </g>
</svg>
