<svg width="66" height="11" viewBox="0 0 66 11" fill="none" xmlns="http://www.w3.org/2000/svg">
<path d="M6.13224 1.6H7.33224L4.30824 10H2.74824L0.0362441 1.6H1.23624L2.96424 7.036C3.07624 7.404 3.17624 7.796 3.26424 8.212C3.36024 8.62 3.42024 8.884 3.44424 9.004H3.66024C3.68424 8.884 3.74824 8.62 3.85224 8.212C3.96424 7.796 4.08424 7.404 4.21224 7.036L6.13224 1.6ZM10.5033 10.144C9.76734 10.144 9.22734 9.94 8.88334 9.532C8.53934 9.116 8.36734 8.484 8.36734 7.636V3.808H9.56734V7.624C9.56734 8.152 9.65134 8.568 9.81934 8.872C9.99534 9.176 10.3073 9.328 10.7553 9.328C11.3393 9.328 11.8473 9.176 12.2793 8.872V3.808H13.4793V8.788L13.7553 10.096H13.1673C13.0633 10.096 12.9673 10.072 12.8793 10.024C12.7993 9.984 12.7273 9.904 12.6633 9.784L12.4953 9.472H12.3033C12.0553 9.736 11.8033 9.912 11.5473 10C11.2913 10.096 10.9433 10.144 10.5033 10.144ZM16.7389 8.164C16.5789 8.348 16.4069 8.536 16.2229 8.728C16.0389 8.92 15.9189 9.044 15.8629 9.1L15.9469 9.28C16.0189 9.264 16.1749 9.232 16.4149 9.184C16.6549 9.136 16.8629 9.112 17.0389 9.112H19.8589V10H14.6149V9.112L17.6149 5.644C17.7749 5.46 17.9509 5.272 18.1429 5.08C18.3349 4.88 18.4589 4.752 18.5149 4.696L18.4069 4.504C18.3749 4.512 18.3029 4.532 18.1909 4.564C18.0789 4.596 17.9349 4.628 17.7589 4.66C17.5909 4.684 17.4189 4.696 17.2429 4.696H14.9749V3.808H19.7389V4.696L16.7389 8.164ZM23.1713 10.144C22.4353 10.144 21.8953 9.94 21.5513 9.532C21.2073 9.116 21.0353 8.484 21.0353 7.636V3.808H22.2353V7.624C22.2353 8.152 22.3193 8.568 22.4873 8.872C22.6633 9.176 22.9753 9.328 23.4233 9.328C24.0073 9.328 24.5153 9.176 24.9473 8.872V3.808H26.1473V8.788L26.4233 10.096H25.8353C25.7313 10.096 25.6353 10.072 25.5473 10.024C25.4673 9.984 25.3953 9.904 25.3313 9.784L25.1633 9.472H24.9713C24.7233 9.736 24.4713 9.912 24.2153 10C23.9593 10.096 23.6113 10.144 23.1713 10.144ZM32.9349 8.524C32.9349 8.796 32.9629 8.992 33.0189 9.112C33.0749 9.224 33.1989 9.308 33.3909 9.364L33.2229 10.084C33.2149 10.092 33.1829 10.104 33.1269 10.12C33.0789 10.136 33.0109 10.144 32.9229 10.144C32.6909 10.136 32.5149 10.096 32.3949 10.024C32.2749 9.96 32.1589 9.828 32.0469 9.628L31.8669 9.304H31.6749C31.4589 9.592 31.2109 9.804 30.9309 9.94C30.6509 10.076 30.3109 10.144 29.9109 10.144C29.2949 10.144 28.8069 9.984 28.4469 9.664C28.0869 9.336 27.9069 8.868 27.9069 8.26C27.9069 7.636 28.1069 7.172 28.5069 6.868C28.9069 6.564 29.5309 6.38 30.3789 6.316L31.7469 6.208V5.812C31.7469 5.332 31.6429 4.992 31.4349 4.792C31.2269 4.584 30.8429 4.48 30.2829 4.48C29.8749 4.48 29.3109 4.568 28.5909 4.744L28.3749 4.036C28.6469 3.932 28.9909 3.844 29.4069 3.772C29.8229 3.7 30.1829 3.664 30.4869 3.664C31.2949 3.664 31.9029 3.828 32.3109 4.156C32.7269 4.476 32.9349 4.992 32.9349 5.704V8.524ZM30.5949 7.036C29.6189 7.108 29.1309 7.496 29.1309 8.2C29.1309 8.952 29.5069 9.328 30.2589 9.328C30.6829 9.328 31.0349 9.228 31.3149 9.028C31.6029 8.82 31.7469 8.484 31.7469 8.02V6.952L30.5949 7.036ZM36.1923 1.12V10H34.9923V1.12H36.1923Z" fill="white"/>
<path d="M43.7723 6.064C43.8923 6.08 44.0123 6.092 44.1323 6.1C44.2523 6.108 44.3683 6.112 44.4803 6.112C44.7523 6.112 45.0043 6.072 45.2363 5.992C45.4763 5.912 45.6803 5.792 45.8483 5.632C46.0243 5.472 46.1603 5.276 46.2563 5.044C46.3523 4.812 46.4003 4.54 46.4003 4.228C46.4003 3.604 46.2123 3.136 45.8363 2.824C45.4683 2.512 44.9843 2.356 44.3843 2.356H43.7723V6.064ZM41.1923 10V9.448L42.2963 9.184V2.416L41.1923 2.152V1.6H44.3843C46.7363 1.6 47.9123 2.476 47.9123 4.228C47.9123 5.116 47.6043 5.78 46.9883 6.22C46.3803 6.652 45.5763 6.868 44.5763 6.868C44.2963 6.868 44.0283 6.848 43.7723 6.808V9.184L45.2363 9.448V10H41.1923ZM48.3577 10V9.484L49.3777 9.244V1.372H48.3577V0.856L50.2777 0.4H50.8177V9.244L51.8377 9.484V10H48.3577ZM52.2461 4.516V4H54.6941V8.14C54.6941 8.94 55.0381 9.34 55.7261 9.34C56.2701 9.34 56.7821 9.136 57.2621 8.728V4.756L56.4821 4.516V4H58.6901V9.22H59.6261V9.616C59.4341 9.784 59.2181 9.92 58.9781 10.024C58.7461 10.128 58.5141 10.18 58.2821 10.18C58.0981 10.18 57.9341 10.144 57.7901 10.072C57.6541 10.008 57.5501 9.924 57.4781 9.82C57.4061 9.716 57.3541 9.632 57.3221 9.568C57.2901 9.496 57.2701 9.436 57.2621 9.388C56.6301 9.916 55.9501 10.18 55.2221 10.18C54.5821 10.18 54.0941 10.008 53.7581 9.664C53.4301 9.32 53.2661 8.864 53.2661 8.296V4.756L52.2461 4.516ZM60.4476 9.904V8.188H60.9996L61.4556 9.448C61.7356 9.496 62.0476 9.52 62.3916 9.52C62.9036 9.52 63.2636 9.456 63.4716 9.328C63.6876 9.192 63.7956 8.964 63.7956 8.644C63.7956 8.396 63.6796 8.192 63.4476 8.032C63.2156 7.864 62.8156 7.668 62.2476 7.444C61.7116 7.22 61.2956 6.956 60.9996 6.652C60.7036 6.34 60.5556 5.948 60.5556 5.476C60.5556 4.94 60.7796 4.532 61.2276 4.252C61.6836 3.964 62.2756 3.82 63.0036 3.82C63.6356 3.82 64.2076 3.896 64.7196 4.048V5.68H64.2156L63.8196 4.552C63.5876 4.488 63.3156 4.456 63.0036 4.456C62.5716 4.456 62.2676 4.524 62.0916 4.66C61.9236 4.788 61.8396 4.984 61.8396 5.248C61.8396 5.4 61.8956 5.536 62.0076 5.656C62.1196 5.776 62.2436 5.876 62.3796 5.956C62.5236 6.028 62.7516 6.132 63.0636 6.268C63.7916 6.572 64.3116 6.88 64.6236 7.192C64.9436 7.496 65.1036 7.892 65.1036 8.38C65.1036 8.964 64.8676 9.412 64.3956 9.724C63.9236 10.028 63.3076 10.18 62.5476 10.18C61.7956 10.18 61.0956 10.088 60.4476 9.904Z" fill="#FF0000"/>
</svg>
