<svg width="75" height="12" viewBox="0 0 75 12" fill="none" xmlns="http://www.w3.org/2000/svg">
<path d="M0.103152 1.30049H2.46815C3.67082 1.30049 4.56182 1.63415 5.14115 2.30149C5.72782 2.96882 6.02115 3.91849 6.02115 5.15049C6.02115 6.37515 5.73515 7.32482 5.16315 7.99949C4.59115 8.66682 3.69282 9.00049 2.46815 9.00049H0.103152V1.30049ZM2.50115 8.12049C3.36649 8.12049 3.97515 7.86015 4.32715 7.33949C4.68649 6.81149 4.86615 6.08182 4.86615 5.15049C4.86615 4.21182 4.68282 3.47482 4.31615 2.93949C3.95682 2.40415 3.34449 2.13649 2.47915 2.13649H1.20315V8.12049H2.50115ZM7.89717 4.01749C8.3225 3.46749 8.94217 3.19249 9.75617 3.19249C11.3402 3.19249 12.1322 4.12749 12.1322 5.99749V6.40449H8.42517C8.42517 7.70249 8.94217 8.35149 9.97617 8.35149C10.2842 8.35149 10.5665 8.32949 10.8232 8.28549C11.0872 8.23415 11.3805 8.15349 11.7032 8.04349L11.9232 8.70349C11.2705 8.98949 10.5812 9.13249 9.85517 9.13249C9.0045 9.13249 8.35917 8.86482 7.91917 8.32949C7.47917 7.79415 7.25917 7.07182 7.25917 6.16249C7.25917 5.27515 7.47183 4.56015 7.89717 4.01749ZM8.73317 4.40249C8.54983 4.71049 8.44717 5.15049 8.42517 5.72249H11.0322C11.0322 5.15782 10.9405 4.72149 10.7572 4.41349C10.5738 4.09815 10.2365 3.94049 9.74517 3.94049C9.26117 3.94049 8.92383 4.09449 8.73317 4.40249ZM17.4241 7.40549C17.4241 7.99215 17.2261 8.42849 16.8301 8.71449C16.4341 8.99315 15.9354 9.13249 15.3341 9.13249C14.6521 9.13249 13.9701 8.96382 13.2881 8.62649L13.5741 7.94449C13.9041 8.08382 14.1901 8.19382 14.4321 8.27449C14.6741 8.34782 14.9344 8.38449 15.2131 8.38449C15.5578 8.38449 15.8328 8.32215 16.0381 8.19749C16.2508 8.06549 16.3571 7.85282 16.3571 7.55949C16.3571 7.35415 16.2984 7.18915 16.1811 7.06449C16.0638 6.93982 15.8254 6.80415 15.4661 6.65749L14.7731 6.38249C14.3918 6.23582 14.0911 6.04149 13.8711 5.79949C13.6511 5.55749 13.5411 5.24215 13.5411 4.85349C13.5411 4.34015 13.7354 3.93682 14.1241 3.64349C14.5128 3.34282 15.0004 3.19249 15.5871 3.19249C16.1004 3.19249 16.6651 3.30982 17.2811 3.54449L17.0501 4.23749C16.5294 4.03949 16.0308 3.94049 15.5541 3.94049C14.8794 3.94049 14.5421 4.19715 14.5421 4.71049C14.5421 4.91582 14.6118 5.07715 14.7511 5.19449C14.8904 5.30449 15.1398 5.43649 15.4991 5.59049L16.2471 5.92049C16.6504 6.09649 16.9474 6.29815 17.1381 6.52549C17.3288 6.74549 17.4241 7.03882 17.4241 7.40549ZM18.9303 1.39949C18.9303 1.20882 18.9963 1.04749 19.1283 0.915488C19.2603 0.783488 19.4217 0.717488 19.6123 0.717488C19.803 0.717488 19.9643 0.783488 20.0963 0.915488C20.2283 1.04749 20.2943 1.20882 20.2943 1.39949C20.2943 1.59015 20.2283 1.75149 20.0963 1.88349C19.9643 2.01549 19.803 2.08149 19.6123 2.08149C19.4217 2.08149 19.2603 2.01549 19.1283 1.88349C18.9963 1.75149 18.9303 1.59015 18.9303 1.39949ZM19.0623 3.32449H20.1623V9.00049H19.0623V3.32449ZM25.5047 9.18749C25.5121 9.00415 25.5341 8.82449 25.5707 8.64849C25.6147 8.46515 25.6441 8.34782 25.6587 8.29649L25.4827 8.19749C25.3067 8.50549 25.0757 8.74015 24.7897 8.90149C24.5037 9.05549 24.1994 9.13249 23.8767 9.13249C23.1727 9.13249 22.6191 8.87215 22.2157 8.35149C21.8124 7.82349 21.6107 7.09749 21.6107 6.17349C21.6107 5.23482 21.8344 4.50515 22.2817 3.98449C22.7291 3.45649 23.3817 3.19249 24.2397 3.19249C24.7824 3.19249 25.5634 3.30249 26.5827 3.52249V9.25349C26.5827 9.70082 26.4727 10.0858 26.2527 10.4085C26.0327 10.7385 25.7357 10.9878 25.3617 11.1565C24.9877 11.3325 24.5734 11.4205 24.1187 11.4205C23.2901 11.4205 22.5311 11.2555 21.8417 10.9255L22.0947 10.2215C22.1607 10.2508 22.3074 10.3095 22.5347 10.3975C22.7621 10.4855 22.9821 10.5515 23.1947 10.5955C23.4147 10.6468 23.6311 10.6725 23.8437 10.6725C24.3644 10.6725 24.7641 10.5368 25.0427 10.2655C25.3287 9.99415 25.4827 9.63482 25.5047 9.18749ZM24.1737 8.38449C24.5331 8.38449 24.8411 8.28915 25.0977 8.09849C25.3544 7.90782 25.4827 7.59982 25.4827 7.17449V4.07249C25.1967 4.01382 24.9841 3.97715 24.8447 3.96249C24.7127 3.94782 24.5147 3.94049 24.2507 3.94049C23.7154 3.94049 23.3341 4.13482 23.1067 4.52349C22.8867 4.91215 22.7767 5.46215 22.7767 6.17349C22.7767 6.64282 22.8097 7.03515 22.8757 7.35049C22.9417 7.66582 23.0737 7.91882 23.2717 8.10949C23.4771 8.29282 23.7777 8.38449 24.1737 8.38449ZM28.7176 3.23649C28.8129 3.23649 28.8973 3.25849 28.9706 3.30249C29.0513 3.33915 29.1209 3.41249 29.1796 3.52249L29.3336 3.80849H29.5096C29.7369 3.56649 29.9569 3.40515 30.1696 3.32449C30.3823 3.23649 30.6719 3.19249 31.0386 3.19249C31.8086 3.19249 32.3696 3.37582 32.7216 3.74249C33.0736 4.10915 33.2496 4.69215 33.2496 5.49149V9.00049H32.1496V5.50249C32.1496 5.00382 32.0653 4.61882 31.8966 4.34749C31.7279 4.07615 31.4016 3.94049 30.9176 3.94049C30.6096 3.94049 30.3456 3.97715 30.1256 4.05049C29.9129 4.11649 29.7149 4.21915 29.5316 4.35849V9.00049H28.4316V4.43549L28.1786 3.23649H28.7176ZM38.1156 7.72449C38.497 7.89315 38.8563 8.02515 39.1936 8.12049C39.531 8.21582 39.8976 8.26349 40.2936 8.26349C40.6676 8.26349 40.9793 8.16082 41.2286 7.95549C41.4853 7.75015 41.6136 7.47149 41.6136 7.11949C41.6136 6.81882 41.5073 6.55849 41.2946 6.33849C41.0893 6.11849 40.7996 5.92049 40.4256 5.74449L39.3036 5.21649C38.8636 5.01115 38.5226 4.75815 38.2806 4.45749C38.046 4.15682 37.9286 3.76815 37.9286 3.29149C37.9286 2.85149 38.0496 2.47015 38.2916 2.14749C38.541 1.82482 38.86 1.58282 39.2486 1.42149C39.6446 1.25282 40.0626 1.16849 40.5026 1.16849C40.9353 1.16849 41.2983 1.20882 41.5916 1.28949C41.8923 1.36282 42.2333 1.47649 42.6146 1.63049L42.3176 2.41149C41.6063 2.14749 40.994 2.01549 40.4806 2.01549C39.5713 2.01549 39.1166 2.36382 39.1166 3.06049C39.1166 3.31715 39.19 3.53349 39.3366 3.70949C39.4906 3.87815 39.729 4.03949 40.0516 4.19349L41.3716 4.84249C42.347 5.32649 42.8346 5.99382 42.8346 6.84449C42.8346 7.37249 42.7063 7.80882 42.4496 8.15349C42.2003 8.49815 41.8813 8.74749 41.4926 8.90149C41.104 9.05549 40.697 9.13249 40.2716 9.13249C39.8316 9.13249 39.4063 9.08115 38.9956 8.97849C38.5923 8.87582 38.1816 8.73282 37.7636 8.54949L38.1156 7.72449ZM44.6043 2.57649C44.6409 2.36382 44.7069 2.20615 44.8023 2.10349C44.8976 2.00082 45.0333 1.94949 45.2093 1.94949H45.5613V3.32449H47.1893V4.08349H45.5613V7.40549C45.5613 7.71349 45.6163 7.94815 45.7263 8.10949C45.8436 8.27082 46.0893 8.35149 46.4633 8.35149C46.6906 8.35149 46.9509 8.32215 47.2443 8.26349L47.3873 8.98949C47.3066 9.01882 47.1489 9.04815 46.9143 9.07749C46.6869 9.11415 46.4963 9.13249 46.3423 9.13249C45.6456 9.13249 45.1579 8.98215 44.8793 8.68149C44.6006 8.37349 44.4613 7.87849 44.4613 7.19649V4.08349H43.6253V3.69849L44.4613 3.32449L44.6043 2.57649ZM50.5831 9.13249C49.9084 9.13249 49.4134 8.94549 49.0981 8.57149C48.7828 8.19015 48.6251 7.61082 48.6251 6.83349V3.32449H49.7251V6.82249C49.7251 7.30649 49.8021 7.68782 49.9561 7.96649C50.1174 8.24515 50.4034 8.38449 50.8141 8.38449C51.3494 8.38449 51.8151 8.24515 52.2111 7.96649V3.32449H53.3111V7.88949L53.5641 9.08849H53.0251C52.9298 9.08849 52.8418 9.06649 52.7611 9.02249C52.6878 8.98582 52.6218 8.91249 52.5631 8.80249L52.4091 8.51649H52.2331C52.0058 8.75849 51.7748 8.91982 51.5401 9.00049C51.3054 9.08849 50.9864 9.13249 50.5831 9.13249ZM57.1901 9.13249C56.4127 9.13249 55.8261 8.87582 55.4301 8.36249C55.0414 7.84915 54.8471 7.12315 54.8471 6.18449C54.8471 5.24582 55.0744 4.51249 55.5291 3.98449C55.9837 3.45649 56.6327 3.19249 57.4761 3.19249C57.6521 3.19249 57.8317 3.21449 58.0151 3.25849C58.2057 3.29515 58.3597 3.33549 58.4771 3.37949C58.6017 3.41615 58.6824 3.44182 58.7191 3.45649V0.860488H59.8191V7.86749L60.0831 9.08849H59.5551C59.3497 9.08849 59.1921 8.99315 59.0821 8.80249L58.9281 8.51649H58.7521C58.5834 8.75115 58.3781 8.91249 58.1361 9.00049C57.8941 9.08849 57.5787 9.13249 57.1901 9.13249ZM56.0131 6.17349C56.0131 6.87015 56.1157 7.41282 56.3211 7.80149C56.5337 8.19015 56.9187 8.38449 57.4761 8.38449C57.7327 8.38449 57.9674 8.34415 58.1801 8.26349C58.3927 8.17549 58.5724 8.06915 58.7191 7.94449V4.16049C58.6897 4.14582 58.6201 4.12382 58.5101 4.09449C58.4074 4.05782 58.2644 4.02482 58.0811 3.99549C57.8977 3.95882 57.6961 3.94049 57.4761 3.94049C56.9407 3.94049 56.5631 4.13482 56.3431 4.52349C56.1231 4.91215 56.0131 5.46215 56.0131 6.17349ZM61.4694 1.39949C61.4694 1.20882 61.5354 1.04749 61.6674 0.915488C61.7994 0.783488 61.9607 0.717488 62.1514 0.717488C62.3421 0.717488 62.5034 0.783488 62.6354 0.915488C62.7674 1.04749 62.8334 1.20882 62.8334 1.39949C62.8334 1.59015 62.7674 1.75149 62.6354 1.88349C62.5034 2.01549 62.3421 2.08149 62.1514 2.08149C61.9607 2.08149 61.7994 2.01549 61.6674 1.88349C61.5354 1.75149 61.4694 1.59015 61.4694 1.39949ZM61.6014 3.32449H62.7014V9.00049H61.6014V3.32449ZM69.4628 6.16249C69.4628 7.10849 69.2428 7.84182 68.8028 8.36249C68.3628 8.87582 67.6955 9.13249 66.8008 9.13249C65.9135 9.13249 65.2498 8.87582 64.8098 8.36249C64.3698 7.84182 64.1498 7.10849 64.1498 6.16249C64.1498 5.21649 64.3698 4.48682 64.8098 3.97349C65.2498 3.45282 65.9135 3.19249 66.8008 3.19249C67.6955 3.19249 68.3628 3.45282 68.8028 3.97349C69.2428 4.48682 69.4628 5.21649 69.4628 6.16249ZM66.8118 8.38449C67.8018 8.38449 68.2968 7.64382 68.2968 6.16249C68.2968 4.68115 67.8018 3.94049 66.8118 3.94049C66.2765 3.94049 65.8915 4.14582 65.6568 4.55649C65.4295 4.95982 65.3158 5.49515 65.3158 6.16249C65.3158 6.82982 65.4295 7.36882 65.6568 7.77949C65.8915 8.18282 66.2765 8.38449 66.8118 8.38449ZM74.8089 7.40549C74.8089 7.99215 74.6109 8.42849 74.2149 8.71449C73.8189 8.99315 73.3202 9.13249 72.7189 9.13249C72.0369 9.13249 71.3549 8.96382 70.6729 8.62649L70.9589 7.94449C71.2889 8.08382 71.5749 8.19382 71.8169 8.27449C72.0589 8.34782 72.3192 8.38449 72.5979 8.38449C72.9425 8.38449 73.2175 8.32215 73.4229 8.19749C73.6355 8.06549 73.7419 7.85282 73.7419 7.55949C73.7419 7.35415 73.6832 7.18915 73.5659 7.06449C73.4485 6.93982 73.2102 6.80415 72.8509 6.65749L72.1579 6.38249C71.7765 6.23582 71.4759 6.04149 71.2559 5.79949C71.0359 5.55749 70.9259 5.24215 70.9259 4.85349C70.9259 4.34015 71.1202 3.93682 71.5089 3.64349C71.8975 3.34282 72.3852 3.19249 72.9719 3.19249C73.4852 3.19249 74.0499 3.30982 74.6659 3.54449L74.4349 4.23749C73.9142 4.03949 73.4155 3.94049 72.9389 3.94049C72.2642 3.94049 71.9269 4.19715 71.9269 4.71049C71.9269 4.91582 71.9965 5.07715 72.1359 5.19449C72.2752 5.30449 72.5245 5.43649 72.8839 5.59049L73.6319 5.92049C74.0352 6.09649 74.3322 6.29815 74.5229 6.52549C74.7135 6.74549 74.8089 7.03882 74.8089 7.40549Z" fill="white"/>
</svg>
